<?xml version="1.0" encoding="utf-8"?>
<!-- Generator: Adobe Illustrator 15.0.0, SVG Export Plug-In . SVG Version: 6.00 Build 0)  -->
<!DOCTYPE svg PUBLIC "-//W3C//DTD SVG 1.1//EN" "http://www.w3.org/Graphics/SVG/1.1/DTD/svg11.dtd">
<svg version="1.1" id="Capa_1" xmlns="http://www.w3.org/2000/svg" xmlns:xlink="http://www.w3.org/1999/xlink" x="0px" y="0px"
	 width="800px" height="600px" viewBox="0 0 800 600" enable-background="new 0 0 800 600" xml:space="preserve">
<path fill="none" stroke="#000000" stroke-width="0.25" stroke-miterlimit="10" d="M291.095,238.921
	c0-23.705-19.217-42.922-42.923-42.922s-42.923,19.217-42.923,42.922H291.095z"/>
<path fill="none" stroke="#000000" stroke-width="0.25" stroke-miterlimit="10" d="M291.095,238.922
	c23.705,0,42.922-19.218,42.922-42.923c0-23.705-19.217-42.922-42.922-42.922V238.922z"/>
<path fill="none" stroke="#000000" stroke-width="0.25" stroke-miterlimit="10" d="M291.101,238.921
	c16.762-16.762,16.762-43.939,0-60.702c-16.762-16.762-43.939-16.762-60.702,0L291.101,238.921z"/>
<path fill="none" stroke="#000000" stroke-width="0.25" stroke-miterlimit="10" d="M291.086,238.922
	c9.071-21.9-1.329-47.008-23.23-56.081c-21.901-9.072-47.01,1.329-56.081,23.229L291.086,238.922z"/>
<path fill="none" stroke="#000000" stroke-width="0.25" stroke-miterlimit="10" d="M291.116,238.922
	c21.9-9.071,32.3-34.18,23.229-56.081c-9.071-21.901-34.18-32.301-56.08-23.23L291.116,238.922z"/>
<path fill="#FFFFFF" stroke="#000000" stroke-width="0.25" stroke-miterlimit="10" d="M470.309,367.279
	c0-23.705-19.218-42.922-42.924-42.922c-23.705,0-42.922,19.217-42.922,42.922H470.309z"/>
<path fill="#FFFFFF" stroke="#000000" stroke-width="0.25" stroke-miterlimit="10" d="M470.299,367.28
	c9.072-21.9-1.328-47.009-23.229-56.081c-21.901-9.071-47.01,1.329-56.081,23.229L470.299,367.28z"/>
<path fill="#FFFFFF" stroke="#000000" stroke-width="0.25" stroke-miterlimit="10" d="M470.314,367.279
	c16.762-16.762,16.762-43.939,0-60.701c-16.763-16.763-43.939-16.763-60.702,0L470.314,367.279z"/>
<path fill="#FFFFFF" stroke="#000000" stroke-width="0.25" stroke-miterlimit="10" d="M470.33,367.28
	c21.899-9.071,32.299-34.18,23.229-56.081c-9.072-21.901-34.181-32.301-56.08-23.23L470.33,367.28z"/>
<path fill="#FFFFFF" stroke="#000000" stroke-width="0.25" stroke-miterlimit="10" d="M470.309,367.28
	c23.704-0.001,42.922-19.218,42.922-42.923c0-23.706-19.217-42.923-42.922-42.923V367.28z"/>
<path fill="#FFE0B2" fill-opacity="0.6" d="M516.895,111.654c0-24.717-20.037-44.754-44.756-44.754
	c-24.717,0-44.753,20.037-44.753,44.754H516.895z"/>
<path fill="#FFCC80" fill-opacity="0.7" d="M516.885,111.655c9.459-22.835-1.385-49.016-24.221-58.475
	c-22.835-9.458-49.016,1.386-58.474,24.22L516.885,111.655z"/>
<path fill="#FFB74D" fill-opacity="0.8" d="M516.9,111.654c17.477-17.479,17.477-45.814,0-63.292
	c-17.479-17.478-45.814-17.478-63.292,0L516.9,111.654z"/>
<path fill="#FFA726" fill-opacity="0.9" d="M516.917,111.655c22.833-9.458,33.678-35.64,24.22-58.475
	c-9.458-22.836-35.639-33.68-58.473-24.222L516.917,111.655z"/>
<path fill="#FF9800" d="M516.895,111.655c24.716-0.001,44.755-20.038,44.755-44.755c0-24.719-20.038-44.755-44.755-44.755V111.655
	L516.895,111.655z"/>
<path fill="#FFA726" fill-opacity="0.9" d="M572.853,168.13c0-17.086-13.851-30.936-30.937-30.936s-30.936,13.85-30.936,30.936
	H572.853z"/>
<path fill="#FFA726" fill-opacity="0.9" d="M572.845,168.13c6.539-15.784-0.957-33.881-16.741-40.419
	c-15.785-6.538-33.882,0.957-40.419,16.741L572.845,168.13z"/>
<path fill="#FFA726" fill-opacity="0.9" d="M572.857,168.13c12.079-12.082,12.079-31.669,0-43.75
	c-12.083-12.081-31.67-12.081-43.751,0L572.857,168.13z"/>
<path fill="#FFA726" fill-opacity="0.9" d="M572.867,168.13c15.783-6.538,23.279-24.635,16.742-40.419
	c-6.538-15.785-24.635-23.281-40.419-16.743L572.867,168.13z"/>
<path fill="#FFA726" fill-opacity="0.9" d="M572.853,168.13c17.084,0,30.936-13.851,30.936-30.936
	c0-17.087-13.851-30.937-30.937-30.937L572.853,168.13L572.853,168.13z"/>
<path fill="#FFE0B2" fill-opacity="0.6" d="M628.785,107.818c17.479-17.479,17.477-45.815-0.001-63.294
	c-17.478-17.477-45.813-17.478-63.291,0L628.785,107.818z"/>
<path fill="#FFCC80" fill-opacity="0.7" d="M628.778,107.811c22.835-9.457,33.68-35.638,24.221-58.473s-35.64-33.68-58.473-24.221
	L628.778,107.811z"/>
<path fill="#FFB74D" fill-opacity="0.8" d="M628.79,107.822c24.717-0.001,44.754-20.038,44.754-44.754
	c-0.001-24.719-20.036-44.756-44.754-44.755V107.822z"/>
<path fill="#FFA726" fill-opacity="0.9" d="M628.801,107.834c22.834,9.457,49.015-1.388,58.474-24.222
	c9.459-22.836-1.385-49.016-24.22-58.474L628.801,107.834z"/>
<path fill="#FF9800" d="M628.785,107.818c17.477,17.477,45.815,17.478,63.293,0c17.479-17.479,17.477-45.815,0-63.293
	L628.785,107.818L628.785,107.818z"/>
<path fill="#FFA726" fill-opacity="0.9" d="M572.853,168.13c17.085,0,30.936-13.851,30.936-30.937
	c0-17.085-13.851-30.936-30.936-30.936V168.13z"/>
<path fill="#FFA726" fill-opacity="0.9" d="M572.853,168.123c15.783,6.538,33.881-0.957,40.419-16.741
	c6.538-15.785-0.957-33.883-16.741-40.42L572.853,168.123z"/>
<path fill="#FFA726" fill-opacity="0.9" d="M572.853,168.135c12.081,12.08,31.669,12.08,43.75,0
	c12.081-12.083,12.081-31.669,0-43.75L572.853,168.135z"/>
<path fill="#FFA726" fill-opacity="0.9" d="M572.853,168.146c6.538,15.783,24.635,23.279,40.419,16.741
	c15.785-6.537,23.281-24.635,16.743-40.418L572.853,168.146z"/>
<path fill="#FFA726" fill-opacity="0.9" d="M572.853,168.13c0,17.084,13.851,30.936,30.936,30.936
	c17.086,0,30.936-13.851,30.936-30.936H572.853L572.853,168.13z"/>
<path fill="#FFA726" fill-opacity="0.9" d="M572.853,168.13c0,17.085,13.851,30.936,30.937,30.936
	c17.085,0,30.935-13.851,30.935-30.936H572.853z"/>
<path fill="#FFA726" fill-opacity="0.9" d="M572.859,168.13c-6.538,15.784,0.957,33.881,16.741,40.419
	c15.785,6.537,33.883-0.958,40.419-16.741L572.859,168.13z"/>
<path fill="#FFA726" fill-opacity="0.9" d="M572.849,168.13c-12.081,12.082-12.081,31.669,0,43.75s31.668,12.081,43.749,0
	L572.849,168.13z"/>
<path fill="#FFA726" fill-opacity="0.9" d="M572.837,168.13c-15.782,6.538-23.278,24.635-16.741,40.419
	c6.537,15.785,24.635,23.281,40.418,16.743L572.837,168.13z"/>
<path fill="#FFA726" fill-opacity="0.9" d="M572.853,168.13c-17.084,0-30.937,13.851-30.937,30.936
	c0,17.087,13.852,30.936,30.937,30.936V168.13L572.853,168.13z"/>
<path fill="#FFA726" fill-opacity="0.9" d="M572.853,168.13c-17.085,0-30.937,13.851-30.937,30.937
	c0,17.085,13.852,30.935,30.937,30.935V168.13z"/>
<path fill="#FFA726" fill-opacity="0.9" d="M572.853,168.137c-15.784-6.538-33.882,0.957-40.42,16.741
	c-6.537,15.785,0.958,33.883,16.742,40.419L572.853,168.137z"/>
<path fill="#FFA726" fill-opacity="0.9" d="M572.853,168.126c-12.082-12.081-31.669-12.081-43.75,0s-12.081,31.668,0,43.749
	L572.853,168.126z"/>
<path fill="#FFA726" fill-opacity="0.9" d="M572.853,168.114c-6.538-15.783-24.636-23.279-40.42-16.742
	c-15.784,6.539-23.28,24.636-16.742,40.419L572.853,168.114z"/>
<path fill="#FFA726" fill-opacity="0.9" d="M572.853,168.13c0-17.084-13.851-30.937-30.937-30.937s-30.936,13.852-30.936,30.937
	H572.853L572.853,168.13z"/>
<path fill="#FFE0B2" fill-opacity="0.6" d="M1282.477,714.804c0-58.979-47.814-106.793-106.795-106.793
	c-58.979,0-106.791,47.813-106.791,106.793H1282.477z"/>
<path fill="#FFCC80" fill-opacity="0.7" d="M1282.452,714.805c22.571-54.487-3.304-116.961-57.793-139.53
	c-54.491-22.568-116.964,3.308-139.531,57.794L1282.452,714.805z"/>
<path fill="#FFB74D" fill-opacity="0.8" d="M1282.491,714.804c41.702-41.707,41.702-109.322,0-151.027
	c-41.708-41.706-109.323-41.706-151.028,0L1282.491,714.804z"/>
<path fill="#FFA726" fill-opacity="0.9" d="M1282.529,714.805c54.484-22.567,80.361-85.043,57.794-139.53
	c-22.57-54.49-85.042-80.367-139.53-57.798L1282.529,714.805z"/>
<path fill="#FF9800" d="M1282.477,714.805c58.976-0.001,106.793-47.813,106.793-106.794c0-58.982-47.814-106.793-106.795-106.793
	L1282.477,714.805L1282.477,714.805z"/>
<path fill="#FFE0B2" fill-opacity="0.6" d="M1236.154,371.661c41.707-41.707,41.703-109.323-0.002-151.031
	c-41.705-41.703-109.32-41.704-151.024,0.002L1236.154,371.661z"/>
<path fill="#FFCC80" fill-opacity="0.7" d="M1236.139,371.645c54.487-22.566,80.365-85.04,57.795-139.528
	c-22.57-54.49-85.043-80.368-139.527-57.797L1236.139,371.645z"/>
<path fill="#FFB74D" fill-opacity="0.8" d="M1236.166,371.671c58.979-0.002,106.791-47.813,106.791-106.791
	c-0.002-58.984-47.813-106.796-106.793-106.794L1236.166,371.671z"/>
<path fill="#FFA726" fill-opacity="0.9" d="M1236.191,371.7c54.484,22.565,116.959-3.312,139.528-57.798
	c22.572-54.491-3.304-116.961-57.792-139.532L1236.191,371.7z"/>
<path fill="#FF9800" d="M1236.154,371.661c41.703,41.702,109.324,41.705,151.027,0c41.707-41.707,41.704-109.323,0-151.029
	L1236.154,371.661L1236.154,371.661z"/>
</svg>
