<?xml version="1.0" encoding="utf-8"?>
<!-- Generator: Adobe Illustrator 15.0.0, SVG Export Plug-In . SVG Version: 6.00 Build 0)  -->
<!DOCTYPE svg PUBLIC "-//W3C//DTD SVG 1.1//EN" "http://www.w3.org/Graphics/SVG/1.1/DTD/svg11.dtd">
<svg version="1.1" id="Capa_1" xmlns="http://www.w3.org/2000/svg" xmlns:xlink="http://www.w3.org/1999/xlink" x="0px" y="0px"
	 width="800px" height="600px" viewBox="0 0 800 600" enable-background="new 0 0 800 600" xml:space="preserve">
	 <defs>
	 	<style>
	 		<![CDATA[
	 			@import url(https://maxcdn.bootstrapcdn.com/bootstrap/3.3.5/css/bootstrap.min.css);
	 		]]>
	 	</style>
	 </defs>
<g id="Capa_1_1_">
	<path class="hidden" fill="#FFE0B2" fill-opacity="0.6" d="M514.024,527.763c0-125.789-101.978-227.764-227.77-227.764
		c-125.788,0-227.76,101.975-227.76,227.764H514.024z"/>
	<path class="hidden" fill="#FFCC80" fill-opacity="0.7" d="M513.973,527.765c48.141-116.211-7.046-249.449-123.258-297.583
		c-116.217-48.135-249.457,7.052-297.586,123.259L513.973,527.765z"/>
	<path class="hidden" fill="#FFB74D" fill-opacity="0.8" d="M514.056,527.763c88.942-88.95,88.942-233.162,0-322.104
		c-88.95-88.951-233.159-88.951-322.104,0L514.056,527.763z"/>
	<path class="hidden" fill="#FFA726" fill-opacity="0.9" d="M514.139,527.765C630.341,479.632,685.529,346.389,637.4,230.182
		C589.262,113.964,456.023,58.774,339.814,106.909L514.139,527.765z"/>
	<path class="hidden" fill="#FF9800" d="M514.024,527.765c125.78-0.002,227.763-101.975,227.763-227.766c0-125.795-101.975-227.764-227.766-227.764
		L514.024,527.765L514.024,527.765z"/>
	<g>
		<path fill="#FF9800" d="M155.101,512.843v14.816h-29.78v-12.606c-7.745,8.617-17.181,12.926-28.307,12.926
			c-10.309,0-19.362-3.518-27.162-10.555c-7.8-7.035-11.699-17.044-11.699-30.023c0-13.035,4.009-23.317,12.026-30.845
			c8.018-7.526,17.072-11.29,27.162-11.29c10.691,0,20.017,4.256,27.98,12.764v-31.334h-15.217v-13.826h30.762v99.975
			L155.101,512.843L155.101,512.843z M74.761,486.99c0,8.728,2.466,15.436,7.405,20.126c4.936,4.689,10.84,7.035,17.712,7.035
			c6.653,0,12.559-2.467,17.712-7.403c5.154-4.938,7.731-11.767,7.731-20.493c0-8.782-2.632-15.408-7.896-19.882
			c-5.264-4.472-11.167-6.708-17.711-6.708c-7.037,0-12.955,2.632-17.754,7.895C77.161,472.823,74.761,479.3,74.761,486.99z"/>
		<path fill="#FF9800" d="M173.264,513.832v-51.541h-12.272v-13.827h27.817v65.368h12.272v13.827h-40.089v-13.827H173.264z
			 M171.055,421.547c0-2.509,0.887-4.688,2.659-6.545c1.772-1.854,4.022-2.781,6.75-2.781c2.563,0,4.771,0.899,6.626,2.7
			c1.854,1.799,2.782,4.008,2.782,6.626s-0.928,4.842-2.782,6.668c-1.854,1.827-4.063,2.741-6.626,2.741
			c-2.618,0-4.841-0.928-6.668-2.782C171.968,426.321,171.055,424.111,171.055,421.547z"/>
		<path fill="#FF9800" d="M211.307,526.67v-27.163h13.907v2.619c0.492,3.709,2.496,6.763,6.014,9.162
			c3.518,2.401,7.677,3.601,12.477,3.601c5.018,0,9.026-0.871,12.026-2.617c2.999-1.745,4.499-4.173,4.499-7.281
			c0-3-1.241-5.209-3.721-6.627c-2.483-1.418-7.406-2.724-14.77-3.916c-10.911-1.841-18.697-4.823-23.358-8.944
			c-4.662-4.12-6.992-9.455-6.992-16.004c0-6.604,2.536-12.13,7.608-16.577c5.073-4.45,11.754-6.674,20.044-6.674
			c7.472,0,13.909,1.539,19.308,4.615v-3.389h13.827v26.263h-13.827v-4.826c-4.2-6.491-10.308-9.737-18.326-9.737
			c-4.09,0-7.459,0.888-10.104,2.66c-2.646,1.773-3.968,4.132-3.968,7.077c0,2.999,1.214,5.06,3.641,6.177
			c2.427,1.118,7.65,2.301,15.668,3.549c7.691,1.195,13.5,2.6,17.427,4.208c3.927,1.609,7.186,4.282,9.775,8.02
			c2.59,3.737,3.886,8.089,3.886,13.055c0,7.365-2.822,13.218-8.467,17.555c-5.646,4.339-12.967,6.508-21.967,6.508
			c-8.455,0-15.354-1.921-20.699-5.761v4.451h-13.908V526.67z"/>
		<path fill="#FF9800" d="M367.979,513.832v13.827h-27.162v-9.653c-7.526,7.31-15.927,10.962-25.198,10.962
			c-7.199,0-13.458-2.345-18.776-7.035c-5.318-4.69-7.978-10.689-7.978-17.999c0-7.363,2.824-13.471,8.469-18.325
			s12.449-7.281,20.412-7.281c7.417,0,14.59,2.235,21.516,6.708v-7.854c0-4.034-0.381-7.145-1.145-9.325
			c-0.765-2.183-2.55-4.146-5.359-5.892c-2.809-1.745-6.477-2.617-11.003-2.617c-7.8,0-13.445,3.107-16.935,9.325l-14.891-3.927
			c6.599-12.325,17.999-18.489,34.199-18.489c5.944,0,11.085,0.805,15.422,2.412c4.335,1.609,7.567,3.683,9.694,6.219
			c2.127,2.537,3.559,5.276,4.295,8.223c0.737,2.944,1.104,7.638,1.104,14.071v36.652L367.979,513.832L367.979,513.832z
			 M339.262,498.206c-6.708-5.235-13.498-7.854-20.371-7.854c-4.309,0-7.909,1.257-10.799,3.766
			c-2.891,2.509-4.336,5.754-4.336,9.734c0,3.709,1.268,6.818,3.804,9.326c2.537,2.51,5.985,3.765,10.35,3.765
			c7.527,0,14.645-3.164,21.352-9.49L339.262,498.206L339.262,498.206z"/>
		<path fill="#FF9800" d="M387.86,513.832v-51.541h-12.273v-13.827h27.817v65.368h12.271v13.827h-40.089v-13.827H387.86z
			 M385.65,421.547c0-2.509,0.886-4.688,2.659-6.545c1.772-1.854,4.021-2.781,6.75-2.781c2.563,0,4.772,0.899,6.625,2.7
			c1.854,1.799,2.783,4.008,2.783,6.626s-0.929,4.842-2.783,6.668c-1.854,1.827-4.063,2.741-6.625,2.741
			c-2.618,0-4.84-0.928-6.668-2.782C386.564,426.321,385.65,424.111,385.65,421.547z"/>
		<path fill="#FF9800" d="M452.983,448.464v9.572c9.981-7.199,19.09-10.8,27.325-10.8c5.126,0,9.367,1.215,12.723,3.641
			c3.354,2.427,5.55,5.399,6.586,8.917c1.036,3.521,1.555,8.66,1.555,15.423v38.615h13.335v13.827h-28.88V475.87
			c0-5.997-0.898-9.911-2.699-11.739c-1.801-1.827-4.009-2.74-6.628-2.74c-6.872,0-14.644,3.354-23.315,10.063v42.379h13.663v13.827
			H423.53v-13.827h13.909v-51.541H423.53v-13.827L452.983,448.464L452.983,448.464z"/>
		<path fill="#FFFFFF" d="M626.705,478.832l14.97,8.353c-3.362,12.793-10.16,22.704-20.388,29.733
			c-10.229,7.03-21.986,10.545-35.274,10.545c-17.426,0-31.401-5.648-41.935-16.954c-10.532-11.303-15.797-25.281-15.797-41.933
			c0-18.251,5.293-32.78,15.88-43.589c10.587-10.807,24.397-16.211,41.438-16.211c15.054,0,27.707,4.107,37.964,12.323v-10.504
			h14.888v36.972h-14.888c-3.31-7.498-8.408-13.304-15.303-17.41c-6.893-4.107-14.143-6.162-21.752-6.162
			c-11.469,0-20.884,4.136-28.244,12.406s-11.042,18.721-11.042,31.347c0,12.958,3.941,23.545,11.827,31.761
			c7.884,8.216,17.23,12.323,28.038,12.323c8.878,0,16.955-2.854,24.233-8.561C618.6,497.564,623.729,489.418,626.705,478.832z"/>
		<path fill="#FF9800" d="M656.231,485.613c0-12.353,4.079-22.482,12.24-30.396c8.16-7.911,18.113-11.868,29.857-11.868
			c11.524,0,21.422,3.901,29.692,11.702c8.271,7.805,12.406,17.989,12.406,30.563c0,12.57-4.123,22.772-12.364,30.603
			c-8.244,7.83-18.154,11.744-29.734,11.744c-11.91,0-21.904-3.97-29.981-11.91C660.271,508.11,656.231,497.966,656.231,485.613z
			 M672.856,485.571c0,7.902,2.468,14.379,7.401,19.43c4.936,5.05,10.959,7.576,18.071,7.576c7.223,0,13.274-2.553,18.155-7.659
			c4.88-5.104,7.318-11.553,7.318-19.347c0-7.847-2.479-14.31-7.442-19.389c-4.962-5.076-10.974-7.615-18.031-7.615
			c-7.389,0-13.48,2.595-18.278,7.781C675.255,471.539,672.856,477.946,672.856,485.571z"/>
	</g>
</g>
</svg>
