<?xml version="1.0" encoding="utf-8"?>
<!-- Generator: Adobe Illustrator 17.1.0, SVG Export Plug-In . SVG Version: 6.00 Build 0)  -->
<!DOCTYPE svg PUBLIC "-//W3C//DTD SVG 1.1//EN" "http://www.w3.org/Graphics/SVG/1.1/DTD/svg11.dtd">
<svg version="1.1" id="Capa_1" xmlns="http://www.w3.org/2000/svg" xmlns:xlink="http://www.w3.org/1999/xlink" x="0px" y="0px"
	 viewBox="0 281.1 612 229.8" enable-background="new 0 281.1 612 229.8" xml:space="preserve">
<g>
	<g>
		<g id="XMLID_1_">
			<path fill="#DE5341" d="M572.6,372.4c3.8-1.4,5.8-2.6,5.8-5.4c0-8-9-17.1-19.7-17.1c-8,0-22.9,6.2-22.9,27.7
				c0,3.4,0.4,7,0.6,10.6L572.6,372.4z M591.3,431.7c-2.2,1.2-4.4,2.6-6.5,3.6c-6.6,3-13.4,3.8-19.3,3.8c-6.4,0-16.3-0.4-26.5-7.8
				c-14.1-10-20.3-27.1-20.3-42.1c0-30.9,25.1-46.1,45.6-46.1c7.2,0,14.6,1.8,20.6,5.6c9.8,6.7,12.4,15.3,13.8,19.8l-46.9,18.9
				l-15.4,1.2c5,25.3,22.1,40.1,41.1,40.1c10.2,0,17.5-3.6,24.3-7L591.3,431.7z"/>
			<path fill="#029A57" d="M482.5,300.8h-15.4l15-7.2h28.7c-6.2,3.6-8.2,4.8-9,11.8c-0.1,0.4-0.1,0.8-0.1,1.3V418v2.2
				c0,7.8,1.4,9,8,9.7c3.4,0.4,6.8,0.6,10.3,1l-7.5,4.4H477c4.6-6,5.4-6.6,5.4-10.7V418L482.5,300.8L482.5,300.8L482.5,300.8z"/>
			<path fill="#1A6EED" d="M467.3,460.6c0,15.8-12.9,31.9-37.6,36.5l-0.7-7.3c16.3-1.3,25-10,25-21.4c0-10.2-6.6-15.6-21.8-26.4
				c-1.6-0.2-2.6-0.2-4.6-0.2c-0.5,0-1.5,0-2.9,0.1l-0.4-5.7c0.3,0,0.7,0,1-0.1c-2.8-3.6-6-7.4-6-13.6c0-3.4,1-5.4,2-7.8l0.7-5.4
				c0.7,0.1,1.5,0.1,2.3,0.1c4.4,0,9-1.8,12.3-4.4l7.1,3.4c-2.6,2.6-5.6,5.4-5.6,9.8s3,6.8,5.2,8.6l7.2,5.6
				C459.3,440,467.3,446.8,467.3,460.6z"/>
			<path fill="#1A6EED" d="M424.5,490c1.5,0,3-0.1,4.4-0.2l0.7,7.3c-4.6,0.9-9.5,1.3-14.9,1.3c-29,0-43-13.8-43-28.6
				c0-7.2,3.6-17.4,15.4-24.4c11.9-7.3,28-8.5,37.2-9.1l0.4,5.7c-4.2,0.2-11.8,1-18.2,3.1c-4.4,1.6-17.2,6.4-17.2,20.6
				C389.3,479.8,403.1,490,424.5,490z"/>
			<path fill="#1A6EED" d="M442.9,389.5c0-14.4-8.6-36.8-25.2-36.8c-1,0-2,0.1-2.9,0.3l-1.2-5.1c5.8-1.4,11.6-1.8,16.7-1.8h41.2
				l-12.8,7.2h-12.4c4.6,3.8,14.2,11.8,14.2,27c0,14.8-8.4,21.8-16.8,28.4l-7.1-3.4c0.5-0.4,0.9-0.8,1.3-1.2
				C442.5,399.4,442.9,393.1,442.9,389.5z"/>
			<path fill="#1A6EED" d="M414.9,415.2c-21.2,0-33.2-15.8-33.2-31.4c0-9.2,4.2-19.4,12.8-26.8c6-4.9,12.6-7.7,19.1-9.2l1.2,5.1
				c-4.3,0.8-8.5,3.1-11.1,6.3c-3.4,4.2-4.4,9.6-4.4,14.8c0,12.8,7.1,33.6,22.7,35.4l-0.7,5.4C419.1,415,416.9,415.2,414.9,415.2z"
				/>
			<path fill="#FCBD16" d="M327.9,432.6c6.8-0.8,13.4-4.4,17.4-10c4.8-6.4,6-14.4,6-22.2c0-17.6-8.4-51.1-33.1-51.1
				c-1.2,0-2.5,0.1-3.7,0.3l-1-5.6c3.1-0.5,6.5-0.8,9.9-0.8c29.3,0,47.7,22.9,47.7,47.1c0,21.5-15.1,44.2-42.5,48L327.9,432.6z"/>
			<path fill="#FCBD16" d="M325,432.8c1,0,2-0.1,2.9-0.2l0.7,5.6c-2.6,0.4-5.4,0.6-8.2,0.6c-31.8,0-48.7-24.8-48.7-47.1
				c0-23.2,16.8-43.4,41.9-47.7l1,5.6c-5.3,0.8-10.4,3.1-14.3,6.5c-7.8,7-9.2,15.8-9.2,24.4C291.2,400.3,300.9,432.8,325,432.8z"/>
			<path fill="#DE5341" d="M219.8,432.6c6.8-0.8,13.4-4.4,17.4-10c4.8-6.4,6-14.4,6-22.2c0-17.6-8.4-51.1-33.1-51.1
				c-1.2,0-2.5,0.1-3.7,0.3l-1-5.6c3.1-0.5,6.4-0.8,9.8-0.8c29.3,0,47.7,22.9,47.7,47.1c0,21.5-15.2,44.2-42.5,48L219.8,432.6z"/>
			<path fill="#DE5341" d="M216.9,432.8c1,0,2-0.1,2.9-0.2l0.7,5.6c-2.6,0.4-5.4,0.6-8.2,0.6c-31.7,0-48.7-24.8-48.7-47.1
				c0-23.2,16.9-43.5,41.9-47.7l1,5.6c-5.3,0.8-10.4,3.1-14.3,6.5c-7.8,7-9.2,15.8-9.2,24.4C182.9,400.3,192.7,432.8,216.9,432.8z"
				/>
			<path fill="#1A6EED" d="M148.3,435.6l-28.7,6.6c-2.1,0.3-4.1,0.7-6.1,0.9l-0.9-6.2c6.5-0.9,11-2.7,15.1-4.3v-32.3l-30.3,1.6
				l16.1-8.6h42.4l-5.2,5c-1.4,1.2-1.6,1.6-2,3.2c-0.2,1.8-0.4,7.6-0.4,9.7L148.3,435.6L148.3,435.6z"/>
			<path fill="#1A6EED" d="M102.1,437.7c4,0,7.4-0.3,10.4-0.7l0.9,6.2l0,0c-9.3,1.4-17.9,2.5-27,2.5C31,445.7,9.9,404.9,9.9,373
				c0.1-38.9,30-75.1,81.2-75.1c10.8,0,21.3,1.6,30.7,4.2c15.1,4.2,22.1,9.4,26.5,12.4l-16.7,15.9l-7,1.6l5-8
				c-6.8-6.6-19.3-18.9-42.9-18.9c-31.7,0-55.6,24.1-55.6,59.2C31.2,402.1,58.5,437.7,102.1,437.7z"/>
		</g>
	</g>
</g>
</svg>
