<?xml version="1.0" encoding="utf-8"?>
<!-- Generator: Adobe Illustrator 18.1.1, SVG Export Plug-In . SVG Version: 6.00 Build 0)  -->
<svg version="1.1" id="Capa_1" xmlns="http://www.w3.org/2000/svg" xmlns:xlink="http://www.w3.org/1999/xlink" x="0px" y="0px"
	 viewBox="102 120.9 800 600" enable-background="new 102 120.9 800 600" xml:space="preserve">
<path fill="none" stroke="#000000" stroke-width="0.25" stroke-miterlimit="10" d="M393.1,359.8c0-23.7-19.2-42.9-42.9-42.9
	s-42.9,19.2-42.9,42.9H393.1z"/>
<path fill="none" stroke="#000000" stroke-width="0.25" stroke-miterlimit="10" d="M393.1,359.8c23.7,0,42.9-19.2,42.9-42.9
	c0-23.7-19.2-42.9-42.9-42.9V359.8z"/>
<path fill="none" stroke="#000000" stroke-width="0.25" stroke-miterlimit="10" d="M393.1,359.8c16.8-16.8,16.8-43.9,0-60.7
	c-16.8-16.8-43.9-16.8-60.7,0L393.1,359.8z"/>
<path fill="none" stroke="#000000" stroke-width="0.25" stroke-miterlimit="10" d="M393.1,359.8c9.1-21.9-1.3-47-23.2-56.1
	c-21.9-9.1-47,1.3-56.1,23.2L393.1,359.8z"/>
<path fill="none" stroke="#000000" stroke-width="0.25" stroke-miterlimit="10" d="M393.1,359.8c21.9-9.1,32.3-34.2,23.2-56.1
	c-9.1-21.9-34.2-32.3-56.1-23.2L393.1,359.8z"/>
<path fill="#FFFFFF" stroke="#000000" stroke-width="0.25" stroke-miterlimit="10" d="M572.3,488.2c0-23.7-19.2-42.9-42.9-42.9
	c-23.7,0-42.9,19.2-42.9,42.9H572.3z"/>
<path fill="#FFFFFF" stroke="#000000" stroke-width="0.25" stroke-miterlimit="10" d="M572.3,488.2c9.1-21.9-1.3-47-23.2-56.1
	c-21.9-9.1-47,1.3-56.1,23.2L572.3,488.2z"/>
<path fill="#FFFFFF" stroke="#000000" stroke-width="0.25" stroke-miterlimit="10" d="M572.3,488.2c16.8-16.8,16.8-43.9,0-60.7
	c-16.8-16.8-43.9-16.8-60.7,0L572.3,488.2z"/>
<path fill="#FFFFFF" stroke="#000000" stroke-width="0.25" stroke-miterlimit="10" d="M572.3,488.2c21.9-9.1,32.3-34.2,23.2-56.1
	c-9.1-21.9-34.2-32.3-56.1-23.2L572.3,488.2z"/>
<path fill="#FFFFFF" stroke="#000000" stroke-width="0.25" stroke-miterlimit="10" d="M572.3,488.2c23.7,0,42.9-19.2,42.9-42.9
	c0-23.7-19.2-42.9-42.9-42.9L572.3,488.2L572.3,488.2z"/>
<path fill="#FFE0B2" fill-opacity="0.6" d="M491.4,233.8c0-24.7-20-44.8-44.8-44.8c-24.7,0-44.8,20-44.8,44.8
	C401.9,233.8,491.4,233.8,491.4,233.8z"/>
<path fill="#FFCC80" fill-opacity="0.7" d="M491.4,233.8c9.5-22.8-1.4-49-24.2-58.5c-22.8-9.5-49,1.4-58.5,24.2L491.4,233.8z"/>
<path fill="#FFB74D" fill-opacity="0.8" d="M491.4,233.8c17.5-17.5,17.5-45.8,0-63.3c-17.5-17.5-45.8-17.5-63.3,0L491.4,233.8z"/>
<path fill="#FFA726" fill-opacity="0.9" d="M491.5,233.8c22.8-9.5,33.7-35.6,24.2-58.5c-9.5-22.8-35.6-33.7-58.5-24.2L491.5,233.8z"
	/>
<path fill="#FF9800" d="M491.4,233.8c24.7,0,44.8-20,44.8-44.8c0-24.7-20-44.8-44.8-44.8V233.8L491.4,233.8z"/>
<path fill="#FFA726" fill-opacity="0.9" d="M674.9,289c0-17.1-13.9-30.9-30.9-30.9S613,271.9,613,289H674.9z"/>
<path fill="#FFA726" fill-opacity="0.9" d="M674.8,289c6.5-15.8-1-33.9-16.7-40.4c-15.8-6.5-33.9,1-40.4,16.7L674.8,289z"/>
<path fill="#FFA726" fill-opacity="0.9" d="M674.9,289c12.1-12.1,12.1-31.7,0-43.8c-12.1-12.1-31.7-12.1-43.8,0L674.9,289z"/>
<path fill="#FFA726" fill-opacity="0.9" d="M674.9,289c15.8-6.5,23.3-24.6,16.7-40.4c-6.5-15.8-24.6-23.3-40.4-16.7L674.9,289z"/>
<path fill="#FFA726" fill-opacity="0.9" d="M674.9,289c17.1,0,30.9-13.9,30.9-30.9c0-17.1-13.9-30.9-30.9-30.9L674.9,289L674.9,289z
	"/>
<path fill="#FFE0B2" fill-opacity="0.6" d="M730.8,228.7c17.5-17.5,17.5-45.8,0-63.3c-17.5-17.5-45.8-17.5-63.3,0L730.8,228.7z"/>
<path fill="#FFCC80" fill-opacity="0.7" d="M730.8,228.7c22.8-9.5,33.7-35.6,24.2-58.5s-35.6-33.7-58.5-24.2L730.8,228.7z"/>
<path fill="#FFB74D" fill-opacity="0.8" d="M730.8,228.7c24.7,0,44.8-20,44.8-44.8c0-24.7-20-44.8-44.8-44.8V228.7z"/>
<path fill="#FFA726" fill-opacity="0.9" d="M730.8,228.7c22.8,9.5,49-1.4,58.5-24.2c9.5-22.8-1.4-49-24.2-58.5L730.8,228.7z"/>
<path fill="#FF9800" d="M730.8,228.7c17.5,17.5,45.8,17.5,63.3,0c17.5-17.5,17.5-45.8,0-63.3L730.8,228.7L730.8,228.7z"/>
<path fill="#FFA726" fill-opacity="0.9" d="M674.9,289c17.1,0,30.9-13.9,30.9-30.9c0-17.1-13.9-30.9-30.9-30.9V289z"/>
<path fill="#FFA726" fill-opacity="0.9" d="M674.9,289c15.8,6.5,33.9-1,40.4-16.7c6.5-15.8-1-33.9-16.7-40.4L674.9,289z"/>
<path fill="#FFA726" fill-opacity="0.9" d="M674.9,289c12.1,12.1,31.7,12.1,43.8,0c12.1-12.1,12.1-31.7,0-43.8L674.9,289z"/>
<path fill="#FFA726" fill-opacity="0.9" d="M674.9,289c6.5,15.8,24.6,23.3,40.4,16.7c15.8-6.5,23.3-24.6,16.7-40.4L674.9,289z"/>
<path fill="#FFA726" fill-opacity="0.9" d="M674.9,289c0,17.1,13.9,30.9,30.9,30.9c17.1,0,30.9-13.9,30.9-30.9H674.9L674.9,289z"/>
<path fill="#FFA726" fill-opacity="0.9" d="M674.9,289c0,17.1,13.9,30.9,30.9,30.9c17.1,0,30.9-13.9,30.9-30.9H674.9z"/>
<path fill="#FFA726" fill-opacity="0.9" d="M674.9,289c-6.5,15.8,1,33.9,16.7,40.4c15.8,6.5,33.9-1,40.4-16.7L674.9,289z"/>
<path fill="#FFA726" fill-opacity="0.9" d="M674.8,289c-12.1,12.1-12.1,31.7,0,43.8s31.7,12.1,43.7,0L674.8,289z"/>
<path fill="#FFA726" fill-opacity="0.9" d="M674.8,289c-15.8,6.5-23.3,24.6-16.7,40.4c6.5,15.8,24.6,23.3,40.4,16.7L674.8,289z"/>
<path fill="#FFA726" fill-opacity="0.9" d="M674.9,289c-17.1,0-30.9,13.9-30.9,30.9c0,17.1,13.9,30.9,30.9,30.9V289L674.9,289z"/>
<path fill="#FFA726" fill-opacity="0.9" d="M674.9,289c-17.1,0-30.9,13.9-30.9,30.9c0,17.1,13.9,30.9,30.9,30.9V289z"/>
<path fill="#FFA726" fill-opacity="0.9" d="M674.9,289c-15.8-6.5-33.9,1-40.4,16.7c-6.5,15.8,1,33.9,16.7,40.4L674.9,289z"/>
<path fill="#FFA726" fill-opacity="0.9" d="M674.9,289c-12.1-12.1-31.7-12.1-43.8,0s-12.1,31.7,0,43.7L674.9,289z"/>
<path fill="#FFA726" fill-opacity="0.9" d="M674.9,289c-6.5-15.8-24.6-23.3-40.4-16.7c-15.8,6.5-23.3,24.6-16.7,40.4L674.9,289z"/>
<path fill="#FFA726" fill-opacity="0.9" d="M674.9,289c0-17.1-13.9-30.9-30.9-30.9S613,271.9,613,289H674.9L674.9,289z"/>
<path fill="#FFE0B2" fill-opacity="0.6" d="M1384.5,835.7c0-59-47.8-106.8-106.8-106.8c-59,0-106.8,47.8-106.8,106.8L1384.5,835.7
	L1384.5,835.7z"/>
<path fill="#FFCC80" fill-opacity="0.7" d="M1384.5,835.7c22.6-54.5-3.3-117-57.8-139.5c-54.5-22.6-117,3.3-139.5,57.8L1384.5,835.7
	z"/>
<path fill="#FFB74D" fill-opacity="0.8" d="M1384.5,835.7c41.7-41.7,41.7-109.3,0-151c-41.7-41.7-109.3-41.7-151,0L1384.5,835.7z"/>
<path fill="#FFA726" fill-opacity="0.9" d="M1384.5,835.7c54.5-22.6,80.4-85,57.8-139.5c-22.6-54.5-85-80.4-139.5-57.8L1384.5,835.7
	z"/>
<path fill="#FF9800" d="M1384.5,835.7c59,0,106.8-47.8,106.8-106.8c0-59-47.8-106.8-106.8-106.8L1384.5,835.7L1384.5,835.7z"/>
<path fill="#FFE0B2" fill-opacity="0.6" d="M683.1,941.9c17.9,0,32.5-14.5,32.5-32.5c0-17.9-14.5-32.5-32.5-32.5V941.9L683.1,941.9z
	"/>
<path fill="#FFCC80" fill-opacity="0.7" d="M683.1,941.9c16.6,6.9,35.6-1,42.4-17.6c6.9-16.6-1-35.6-17.6-42.4L683.1,941.9z"/>
<path fill="#FFB74D" fill-opacity="0.8" d="M683.1,941.9c12.7,12.7,33.2,12.7,45.9,0c12.7-12.7,12.7-33.2,0-45.9L683.1,941.9z"/>
<path fill="#FFA726" fill-opacity="0.9" d="M683.1,941.9c6.9,16.6,25.8,24.4,42.4,17.6c16.6-6.9,24.4-25.8,17.6-42.4L683.1,941.9z"
	/>
<path fill="#FF9800" d="M683.1,941.9c0,17.9,14.5,32.5,32.5,32.5c17.9,0,32.5-14.5,32.5-32.5L683.1,941.9L683.1,941.9z"/>
<path fill="#FFE0B2" fill-opacity="0.6" d="M1338.2,492.6c41.7-41.7,41.7-109.3,0-151c-41.7-41.7-109.3-41.7-151,0L1338.2,492.6z"/>
<path fill="#FFCC80" fill-opacity="0.7" d="M1338.1,492.5c54.5-22.6,80.4-85,57.8-139.5c-22.6-54.5-85-80.4-139.5-57.8L1338.1,492.5
	z"/>
<path fill="#FFB74D" fill-opacity="0.8" d="M1338.2,492.6c59,0,106.8-47.8,106.8-106.8c0-59-47.8-106.8-106.8-106.8L1338.2,492.6z"
	/>
<path fill="#FFA726" fill-opacity="0.9" d="M1338.2,492.6c54.5,22.6,117-3.3,139.5-57.8c22.6-54.5-3.3-117-57.8-139.5L1338.2,492.6z
	"/>
<path fill="#FF9800" d="M1338.2,492.6c41.7,41.7,109.3,41.7,151,0c41.7-41.7,41.7-109.3,0-151L1338.2,492.6L1338.2,492.6z"/>
<g>
	<path fill="#FFFFFF" d="M401.9,224c0-2.9,0.7-5.2,2-6.9c1.4-1.7,3.1-2.6,5.3-2.6c2.2,0,3.9,0.7,5.2,2.2V207h3.2v26.5h-2.9l-0.2-2
		c-1.3,1.6-3.1,2.3-5.3,2.3c-2.2,0-3.9-0.9-5.3-2.7c-1.4-1.8-2-4.1-2-6.9V224z M405.1,224.4c0,2.1,0.4,3.8,1.3,5
		c0.9,1.2,2.1,1.8,3.6,1.8c2,0,3.5-0.9,4.4-2.7v-8.6c-1-1.8-2.4-2.6-4.4-2.6c-1.6,0-2.8,0.6-3.7,1.8
		C405.6,220.2,405.1,222,405.1,224.4z"/>
	<path fill="#FFFFFF" d="M422.7,209.8c0-0.5,0.2-1,0.5-1.3s0.8-0.5,1.4-0.5s1.1,0.2,1.4,0.5s0.5,0.8,0.5,1.3s-0.2,1-0.5,1.3
		s-0.8,0.5-1.4,0.5s-1.1-0.2-1.4-0.5S422.7,210.4,422.7,209.8z M426.1,233.5h-3.2v-18.7h3.2V233.5z"/>
	<path fill="#FFFFFF" d="M442.1,228.5c0-0.9-0.3-1.5-1-2c-0.7-0.5-1.8-0.9-3.4-1.2c-1.6-0.3-2.9-0.8-3.9-1.2s-1.7-1.1-2.1-1.7
		s-0.7-1.5-0.7-2.4c0-1.5,0.6-2.8,1.9-3.9c1.3-1.1,3-1.6,5-1.6c2.1,0,3.8,0.5,5.2,1.6c1.3,1.1,2,2.5,2,4.2h-3.2
		c0-0.9-0.4-1.6-1.1-2.3c-0.7-0.6-1.7-1-2.8-1c-1.2,0-2.1,0.3-2.7,0.8c-0.7,0.5-1,1.2-1,2c0,0.8,0.3,1.4,0.9,1.7
		c0.6,0.4,1.7,0.8,3.3,1.1c1.6,0.4,2.9,0.8,3.9,1.3c1,0.5,1.7,1.1,2.2,1.8c0.5,0.7,0.7,1.5,0.7,2.5c0,1.7-0.7,3-2,4
		s-3.1,1.5-5.2,1.5c-1.5,0-2.8-0.3-4-0.8c-1.2-0.5-2.1-1.3-2.7-2.2s-1-2-1-3.1h3.2c0.1,1.1,0.5,1.9,1.3,2.5c0.8,0.6,1.9,0.9,3.2,0.9
		c1.2,0,2.2-0.2,2.9-0.7C441.8,230,442.1,229.4,442.1,228.5z"/>
	<path fill="#FFFFFF" d="M461,233.5c-0.2-0.4-0.3-1-0.4-2c-1.5,1.5-3.3,2.3-5.3,2.3c-1.8,0-3.4-0.5-4.5-1.6s-1.8-2.4-1.8-4
		c0-1.9,0.7-3.5,2.2-4.5s3.6-1.6,6.2-1.6h3.1v-1.5c0-1.1-0.3-2-1-2.7c-0.7-0.7-1.7-1-3-1c-1.1,0-2.1,0.3-2.9,0.9
		c-0.8,0.6-1.2,1.3-1.2,2.1h-3.2c0-0.9,0.3-1.8,1-2.7s1.6-1.6,2.7-2.1s2.4-0.8,3.7-0.8c2.2,0,3.8,0.5,5.1,1.6s1.9,2.6,1.9,4.4v8.6
		c0,1.7,0.2,3.1,0.7,4.1v0.3H461z M455.7,231.1c1,0,2-0.3,2.9-0.8c0.9-0.5,1.5-1.2,2-2v-3.8H458c-3.9,0-5.9,1.1-5.9,3.4
		c0,1,0.3,1.8,1,2.3C453.8,230.8,454.7,231.1,455.7,231.1z"/>
	<path fill="#FFFFFF" d="M468.8,209.8c0-0.5,0.2-1,0.5-1.3s0.8-0.5,1.4-0.5s1.1,0.2,1.4,0.5s0.5,0.8,0.5,1.3s-0.2,1-0.5,1.3
		s-0.8,0.5-1.4,0.5s-1.1-0.2-1.4-0.5S468.8,210.4,468.8,209.8z M472.2,233.5H469v-18.7h3.2V233.5z"/>
	<path fill="#FFFFFF" d="M480.4,214.8l0.1,2.3c1.4-1.8,3.3-2.7,5.6-2.7c4,0,5.9,2.2,6,6.7v12.4h-3.2v-12.4c0-1.3-0.3-2.3-0.9-3
		s-1.5-1-2.8-1c-1,0-1.9,0.3-2.7,0.8c-0.8,0.6-1.4,1.3-1.8,2.2v13.3h-3.2v-18.7H480.4z"/>
	<path fill="#FFFFFF" d="M515.9,225.5c-0.3,2.7-1.3,4.7-2.9,6.2c-1.7,1.4-3.9,2.2-6.6,2.2c-3,0-5.4-1.1-7.1-3.2
		c-1.8-2.1-2.7-5-2.7-8.6v-2.4c0-2.3,0.4-4.4,1.3-6.2s2-3.1,3.6-4.1c1.5-1,3.3-1.4,5.3-1.4c2.7,0,4.8,0.7,6.4,2.2
		c1.6,1.5,2.6,3.6,2.8,6.2h-3.3c-0.3-2-0.9-3.5-1.9-4.4c-1-0.9-2.3-1.4-4-1.4c-2.1,0-3.8,0.8-5,2.4c-1.2,1.6-1.8,3.8-1.8,6.7v2.4
		c0,2.7,0.6,4.9,1.7,6.5c1.1,1.6,2.7,2.4,4.8,2.4c1.8,0,3.3-0.4,4.2-1.3c1-0.8,1.6-2.3,2-4.4H515.9z"/>
	<path fill="#FFFFFF" d="M519,224c0-1.8,0.4-3.5,1.1-4.9c0.7-1.5,1.7-2.6,3-3.4c1.3-0.8,2.8-1.2,4.4-1.2c2.5,0,4.6,0.9,6.2,2.6
		s2.4,4.1,2.4,7v0.2c0,1.8-0.3,3.5-1,4.9c-0.7,1.4-1.7,2.6-3,3.4s-2.8,1.2-4.5,1.2c-2.5,0-4.6-0.9-6.2-2.6s-2.4-4.1-2.4-7V224z
		 M522.3,224.4c0,2.1,0.5,3.7,1.4,5c1,1.3,2.2,1.9,3.9,1.9c1.6,0,2.9-0.6,3.9-1.9c1-1.3,1.4-3.1,1.4-5.3c0-2.1-0.5-3.7-1.5-5
		c-1-1.3-2.3-1.9-3.9-1.9c-1.6,0-2.9,0.6-3.8,1.9C522.7,220.2,522.3,222,522.3,224.4z"/>
</g>
</svg>
